SourceSerif_1.ufo
<glyph name="lbar" format="2">
	<unicode hex="019A"/>
	<advance width="298"/>
	<outline>
		<contour>
			<point x="18" y="351" type="line"/>
			<point x="285" y="351" type="line"/>
			<point x="285" y="397" type="line"/>
			<point x="18" y="397" type="line"/>
		</contour>
		<component base="l"/>
	</outline>
</glyph>
<glyph name="lambdastroke" format="2">
	<unicode hex="019B"/>
	<advance width="533"/>
	<outline>
		<contour>
			<point x="74" y="486" type="line"/>
			<point x="445" y="604" type="line"/>
			<point x="431" y="648" type="line"/>
			<point x="60" y="530" type="line"/>
		</contour>
		<component base="lambda"/>
	</outline>
</glyph>
<glyph name="clickdental" format="2">
	<unicode hex="01C0"/>
	<advance width="291"/>
	<outline>
		<contour>
			<point x="116" y="0" type="line"/>
			<point x="175" y="0" type="line"/>
			<point x="175" y="750" type="line"/>
			<point x="116" y="750" type="line"/>
		</contour>
	</outline>
</glyph>
<glyph name="clicklateral" format="2">
	<unicode hex="01C1"/>
	<advance width="291"/>
	<outline>
		<contour>
			<point x="57" y="0" type="line"/>
			<point x="116" y="0" type="line"/>
			<point x="116" y="750" type="line"/>
			<point x="57" y="750" type="line"/>
		</contour>
		<contour>
			<point x="175" y="0" type="line"/>
			<point x="234" y="0" type="line"/>
			<point x="234" y="750" type="line"/>
			<point x="175" y="750" type="line"/>
		</contour>
	</outline>
</glyph>
<glyph name="clickalveolar" format="2">
	<unicode hex="01C2"/>
	<advance width="291"/>
	<outline>
		<contour>
			<point x="116" y="0" type="line"/>
			<point x="175" y="0" type="line"/>
			<point x="175" y="750" type="line"/>
			<point x="116" y="750" type="line"/>
		</contour>
		<contour>
			<point x="12" y="283" type="line"/>
			<point x="279" y="283" type="line"/>
			<point x="279" y="329" type="line"/>
			<point x="12" y="329" type="line"/>
		</contour>
		<contour>
			<point x="12" y="403" type="line"/>
			<point x="279" y="403" type="line"/>
			<point x="279" y="449" type="line"/>
			<point x="12" y="449" type="line"/>
		</contour>
	</outline>
</glyph>
<glyph name="clickretroflex" format="2">
	<unicode hex="01C3"/>
	<advance width="289"/>
	<outline>
		<contour>
			<point x="145" y="-13" type="curve" smooth="yes"/>
			<point x="181" y="-13"/>
			<point x="209" y="17"/>
			<point x="209" y="52" type="curve" smooth="yes"/>
			<point x="209" y="87"/>
			<point x="181" y="117"/>
			<point x="145" y="117" type="curve" smooth="yes"/>
			<point x="109" y="117"/>
			<point x="80" y="87"/>
			<point x="80" y="52" type="curve" smooth="yes"/>
			<point x="80" y="17"/>
			<point x="109" y="-13"/>
		</contour>
		<contour>
			<point x="145" y="750" type="curve" smooth="yes"/>
			<point x="109" y="750"/>
			<point x="87" y="731"/>
			<point x="87" y="687" type="curve" smooth="yes"/>
			<point x="87" y="650"/>
			<point x="97" y="521"/>
			<point x="113" y="352" type="curve" smooth="yes"/>
			<point x="126" y="215" type="line"/>
			<point x="163" y="215" type="line"/>
			<point x="177" y="352" type="line" smooth="yes"/>
			<point x="194" y="521"/>
			<point x="202" y="650"/>
			<point x="202" y="687" type="curve" smooth="yes"/>
			<point x="202" y="731"/>
			<point x="180" y="750"/>
		</contour>
	</outline>
</glyph>
<glyph name="Glottalstoplatin" format="2">
	<unicode hex="0241"/>
	<advance width="550"/>
	<outline>
		<contour>
			<point x="109" y="0" type="line"/>
			<point x="392" y="0" type="line"/>
			<point x="392" y="41" type="line"/>
			<point x="261" y="56" type="line"/>
			<point x="240" y="56" type="line"/>
			<point x="109" y="41" type="line"/>
		</contour>
		<contour>
			<point x="200" y="0" type="curve"/>
			<point x="301" y="0" type="line"/>
			<point x="298" y="86"/>
			<point x="298" y="174"/>
			<point x="298" y="298" type="curve"/>
			<point x="284" y="280" type="line"/>
			<point x="418" y="300"/>
			<point x="487" y="397"/>
			<point x="487" y="488" type="curve" smooth="yes"/>
			<point x="487" y="614"/>
			<point x="398" y="685"/>
			<point x="263" y="685" type="curve" smooth="yes"/>
			<point x="187" y="685"/>
			<point x="115" y="668"/>
			<point x="70" y="643" type="curve"/>
			<point x="76" y="507" type="line"/>
			<point x="138" y="507" type="line"/>
			<point x="166" y="663" type="line"/>
			<point x="100" y="636" type="line"/>
			<point x="100" y="595" type="line"/>
			<point x="148" y="623"/>
			<point x="195" y="635"/>
			<point x="251" y="635" type="curve" smooth="yes"/>
			<point x="336" y="635"/>
			<point x="393" y="589"/>
			<point x="393" y="479" type="curve" smooth="yes"/>
			<point x="393" y="382"/>
			<point x="339" y="319"/>
			<point x="203" y="315" type="curve"/>
			<point x="203" y="173"/>
			<point x="203" y="86"/>
		</contour>
	</outline>
</glyph>
<glyph name="glottalstoplatin" format="2">
	<unicode hex="0242"/>
	<advance width="389"/>
	<outline>
		<contour>
			<point x="63" y="0" type="line"/>
			<point x="295" y="0" type="line"/>
			<point x="295" y="36" type="line"/>
			<point x="190" y="56" type="line"/>
			<point x="167" y="56" type="line"/>
			<point x="63" y="36" type="line"/>
		</contour>
		<contour>
			<point x="131" y="0" type="curve"/>
			<point x="222" y="0" type="line"/>
			<point x="221" y="25"/>
			<point x="219" y="83"/>
			<point x="219" y="118" type="curve" smooth="yes"/>
			<point x="219" y="196" type="line"/>
			<point x="158" y="159" type="line"/>
			<point x="324" y="206"/>
			<point x="370" y="263"/>
			<point x="370" y="337" type="curve" smooth="yes"/>
			<point x="370" y="426"/>
			<point x="309" y="488"/>
			<point x="176" y="488" type="curve" smooth="yes"/>
			<point x="121" y="488"/>
			<point x="55" y="472"/>
			<point x="12" y="446" type="curve"/>
			<point x="15" y="327" type="line"/>
			<point x="71" y="327" type="line"/>
			<point x="94" y="447" type="line"/>
			<point x="54" y="400" type="line"/>
			<point x="85" y="430"/>
			<point x="111" y="442"/>
			<point x="164" y="442" type="curve" smooth="yes"/>
			<point x="235" y="442"/>
			<point x="280" y="400"/>
			<point x="280" y="338" type="curve" smooth="yes"/>
			<point x="280" y="261"/>
			<point x="246" y="225"/>
			<point x="134" y="196" type="curve"/>
			<point x="134" y="118" type="line" smooth="yes"/>
			<point x="134" y="83"/>
			<point x="132" y="25"/>
		</contour>
	</outline>
</glyph>
<glyph name="bhook" format="2">
	<unicode hex="0253"/>
	<advance width="577"/>
	<outline>
		<contour>
			<point x="30" y="0" type="line"/>
			<point x="180" y="-10" type="line"/>
			<point x="191" y="79" type="line"/>
			<point x="191" y="81" type="line"/>
			<point x="191" y="376" type="line"/>
			<point x="188" y="389" type="line"/>
			<point x="188" y="504" type="line" smooth="yes"/>
			<point x="188" y="637"/>
			<point x="245" y="704"/>
			<point x="334" y="704" type="curve" smooth="yes"/>
			<point x="362" y="704"/>
			<point x="396" y="697"/>
			<point x="430" y="679" type="curve"/>
			<point x="382" y="717" type="line"/>
			<point x="409" y="598"/>
			<point x="426" y="582"/>
			<point x="463" y="582" type="curve" smooth="yes"/>
			<point x="486" y="582"/>
			<point x="502" y="594"/>
			<point x="507" y="620" type="curve"/>
			<point x="494" y="694"/>
			<point x="420" y="750"/>
			<point x="330" y="750" type="curve" smooth="yes"/>
			<point x="209" y="750"/>
			<point x="107" y="655"/>
			<point x="107" y="494" type="curve" smooth="yes"/>
			<point x="107" y="211" type="line" smooth="yes"/>
			<point x="107" y="166"/>
			<point x="106" y="99"/>
			<point x="105" y="49" type="curve"/>
			<point x="30" y="36" type="line"/>
		</contour>
		<contour>
			<point x="326" y="-13" type="curve" smooth="yes"/>
			<point x="443" y="-13"/>
			<point x="532" y="88"/>
			<point x="532" y="242" type="curve" smooth="yes"/>
			<point x="532" y="391"/>
			<point x="448" y="478"/>
			<point x="342" y="478" type="curve" smooth="yes"/>
			<point x="278" y="478"/>
			<point x="220" y="446"/>
			<point x="165" y="373" type="curve"/>
			<point x="149" y="373" type="line"/>
			<point x="158" y="332" type="line"/>
			<point x="229" y="403"/>
			<point x="278" y="421"/>
			<point x="315" y="421" type="curve" smooth="yes"/>
			<point x="390" y="421"/>
			<point x="442" y="356"/>
			<point x="442" y="234" type="curve" smooth="yes"/>
			<point x="442" y="105"/>
			<point x="381" y="44"/>
			<point x="310" y="44" type="curve" smooth="yes"/>
			<point x="263" y="44"/>
			<point x="210" y="70"/>
			<point x="159" y="135" type="curve"/>
			<point x="150" y="93" type="line"/>
			<point x="164" y="93" type="line"/>
			<point x="214" y="10"/>
			<point x="270" y="-13"/>
		</contour>
	</outline>
</glyph>
<glyph name="dtail" format="2">
	<unicode hex="0256"/>
	<advance width="567"/>
	<outline>
		<contour>
			<point x="575" y="-250" type="curve" smooth="yes"/>
			<point x="635" y="-250"/>
			<point x="663" y="-218"/>
			<point x="664" y="-192" type="curve"/>
			<point x="655" y="-164"/>
			<point x="634" y="-151"/>
			<point x="605" y="-151" type="curve" smooth="yes"/>
			<point x="578" y="-151"/>
			<point x="552" y="-160"/>
			<point x="485" y="-215" type="curve"/>
			<point x="485" y="-220" type="line"/>
			<point x="525" y="-220" type="line"/>
			<point x="525" y="-211" type="line"/>
			<point x="486" y="-194"/>
			<point x="470" y="-140"/>
			<point x="470" y="102" type="curve" smooth="yes"/>
			<point x="470" y="589" type="line"/>
			<point x="474" y="732" type="line"/>
			<point x="460" y="740" type="line"/>
			<point x="304" y="695" type="line"/>
			<point x="304" y="659" type="line"/>
			<point x="389" y="649" type="line"/>
			<point x="389" y="399" type="line"/>
			<point x="386" y="386" type="line"/>
			<point x="386" y="93" type="line"/>
			<point x="389" y="92" type="line"/>
			<point x="389" y="-63"/>
			<point x="397" y="-141"/>
			<point x="451" y="-195" type="curve" smooth="yes"/>
			<point x="486" y="-230"/>
			<point x="516" y="-250"/>
		</contour>
		<contour>
			<point x="249" y="-13" type="curve" smooth="yes"/>
			<point x="319" y="-13"/>
			<point x="365" y="20"/>
			<point x="402" y="78" type="curve"/>
			<point x="414" y="78" type="line"/>
			<point x="405" y="125" type="line"/>
			<point x="359" y="66"/>
			<point x="325" y="44"/>
			<point x="274" y="44" type="curve" smooth="yes"/>
			<point x="194" y="44"/>
			<point x="135" y="104"/>
			<point x="135" y="235" type="curve" smooth="yes"/>
			<point x="135" y="371"/>
			<point x="199" y="431"/>
			<point x="273" y="431" type="curve" smooth="yes"/>
			<point x="311" y="431"/>
			<point x="350" y="415"/>
			<point x="407" y="359" type="curve"/>
			<point x="417" y="407" type="line"/>
			<point x="402" y="407" type="line"/>
			<point x="355" y="468"/>
			<point x="310" y="488"/>
			<point x="258" y="488" type="curve" smooth="yes"/>
			<point x="136" y="488"/>
			<point x="45" y="386"/>
			<point x="45" y="233" type="curve" smooth="yes"/>
			<point x="45" y="87"/>
			<point x="127" y="-13"/>
		</contour>
	</outline>
</glyph>
<glyph name="dotlessjstroke" format="2">
	<unicode hex="025F"/>
	<advance width="277"/>
	<outline>
		<contour>
			<point x="15" y="211" type="line"/>
			<point x="282" y="211" type="line"/>
			<point x="282" y="257" type="line"/>
			<point x="15" y="257" type="line"/>
		</contour>
		<component base="dotlessj"/>
	</outline>
</glyph>
<glyph name="istroke" format="2">
	<unicode hex="0268"/>
	<advance width="298"/>
	<outline>
		<contour>
			<point x="18" y="211" type="line"/>
			<point x="285" y="211" type="line"/>
			<point x="285" y="257" type="line"/>
			<point x="18" y="257" type="line"/>
		</contour>
		<component base="i"/>
	</outline>
</glyph>
<glyph name="iotalatin" format="2">
	<unicode hex="0269"/>
	<advance width="287"/>
	<outline>
		<contour>
			<point x="209" y="-13" type="curve" smooth="yes"/>
			<point x="247" y="-13"/>
			<point x="282" y="10"/>
			<point x="303" y="38" type="curve"/>
			<point x="289" y="62" type="line"/>
			<point x="275" y="51"/>
			<point x="254" y="42"/>
			<point x="238" y="42" type="curve" smooth="yes"/>
			<point x="214" y="42"/>
			<point x="196" y="53"/>
			<point x="196" y="106" type="curve" smooth="yes"/>
			<point x="196" y="342" type="line"/>
			<point x="199" y="478" type="line"/>
			<point x="184" y="488" type="line"/>
			<point x="29" y="427" type="line"/>
			<point x="29" y="392" type="line"/>
			<point x="108" y="383" type="line"/>
			<point x="110" y="343"/>
			<point x="111" y="312"/>
			<point x="111" y="257" type="curve" smooth="yes"/>
			<point x="111" y="104" type="line" smooth="yes"/>
			<point x="111" y="25"/>
			<point x="143" y="-13"/>
		</contour>
	</outline>
</glyph>
<glyph name="Ismall" format="2">
	<unicode hex="026A"/>
	<advance width="339"/>
	<outline>
		<contour>
			<point x="51" y="0" type="line"/>
			<point x="286" y="0" type="line"/>
			<point x="286" y="35" type="line"/>
			<point x="178" y="47" type="line"/>
			<point x="160" y="47" type="line"/>
			<point x="51" y="35" type="line"/>
		</contour>
		<contour>
			<point x="124" y="0" type="curve"/>
			<point x="214" y="0" type="line"/>
			<point x="212" y="74"/>
			<point x="212" y="148"/>
			<point x="212" y="221" type="curve" smooth="yes"/>
			<point x="212" y="254" type="line" smooth="yes"/>
			<point x="212" y="329"/>
			<point x="212" y="403"/>
			<point x="214" y="475" type="curve"/>
			<point x="124" y="475" type="line"/>
			<point x="127" y="401"/>
			<point x="127" y="327"/>
			<point x="127" y="254" type="curve" smooth="yes"/>
			<point x="127" y="221" type="line" smooth="yes"/>
			<point x="127" y="146"/>
			<point x="127" y="72"/>
		</contour>
		<contour>
			<point x="160" y="429" type="line"/>
			<point x="178" y="429" type="line"/>
			<point x="286" y="441" type="line"/>
			<point x="286" y="475" type="line"/>
			<point x="51" y="475" type="line"/>
			<point x="51" y="441" type="line"/>
		</contour>
	</outline>
</glyph>
<glyph name="lmiddletilde" format="2">
	<unicode hex="026B"/>
	<advance width="298"/>
	<outline>
		<contour>
			<point x="143" y="406" type="line"/>
			<point x="121" y="426"/>
			<point x="108" y="439"/>
			<point x="75" y="439" type="curve" smooth="yes"/>
			<point x="20" y="439"/>
			<point x="-9" y="393"/>
			<point x="-20" y="323" type="curve"/>
			<point x="7" y="315" type="line"/>
			<point x="21" y="359"/>
			<point x="39" y="386"/>
			<point x="69" y="386" type="curve" smooth="yes"/>
			<point x="96" y="386"/>
			<point x="119" y="362"/>
			<point x="144" y="340" type="curve"/>
		</contour>
		<contour>
			<point x="154" y="347" type="line"/>
			<point x="176" y="328"/>
			<point x="188" y="315"/>
			<point x="221" y="315" type="curve" smooth="yes"/>
			<point x="277" y="315"/>
			<point x="304" y="361"/>
			<point x="316" y="430" type="curve"/>
			<point x="289" y="439" type="line"/>
			<point x="275" y="395"/>
			<point x="257" y="367"/>
			<point x="227" y="367" type="curve" smooth="yes"/>
			<point x="200" y="367"/>
			<point x="179" y="391"/>
			<point x="152" y="413" type="curve"/>
		</contour>
		<component base="l"/>
	</outline>
</glyph>
<glyph name="mhook" format="2">
	<unicode hex="0271"/>
	<advance width="901"/>
	<outline>
		<contour>
			<point x="614" y="-250" type="curve" smooth="yes"/>
			<point x="673" y="-250"/>
			<point x="703" y="-230"/>
			<point x="738" y="-195" type="curve" smooth="yes"/>
			<point x="792" y="-141"/>
			<point x="800" y="-63"/>
			<point x="800" y="100" type="curve" smooth="yes"/>
			<point x="800" y="313" type="line" smooth="yes"/>
			<point x="800" y="437"/>
			<point x="753" y="488"/>
			<point x="672" y="488" type="curve" smooth="yes"/>
			<point x="602" y="488"/>
			<point x="532" y="451"/>
			<point x="479" y="379" type="curve"/>
			<point x="471" y="379" type="line"/>
			<point x="491" y="347" type="line"/>
			<point x="546" y="398"/>
			<point x="588" y="416"/>
			<point x="632" y="416" type="curve" smooth="yes"/>
			<point x="690" y="416"/>
			<point x="716" y="390"/>
			<point x="716" y="297" type="curve" smooth="yes"/>
			<point x="716" y="102" type="line" smooth="yes"/>
			<point x="716" y="-48"/>
			<point x="711" y="-129"/>
			<point x="695" y="-171" type="curve" smooth="yes"/>
			<point x="686" y="-194"/>
			<point x="675" y="-205"/>
			<point x="661" y="-211" type="curve"/>
			<point x="661" y="-220" type="line"/>
			<point x="704" y="-220" type="line"/>
			<point x="704" y="-215" type="line"/>
			<point x="659" y="-181" type="line" smooth="yes"/>
			<point x="633" y="-161"/>
			<point x="611" y="-151"/>
			<point x="584" y="-151" type="curve" smooth="yes"/>
			<point x="555" y="-151"/>
			<point x="534" y="-164"/>
			<point x="525" y="-192" type="curve"/>
			<point x="526" y="-218"/>
			<point x="554" y="-250"/>
		</contour>
		<contour>
			<point x="40" y="0" type="line"/>
			<point x="272" y="0" type="line"/>
			<point x="272" y="36" type="line"/>
			<point x="172" y="56" type="line"/>
			<point x="149" y="56" type="line"/>
			<point x="40" y="36" type="line"/>
		</contour>
		<contour>
			<point x="113" y="0" type="curve"/>
			<point x="204" y="0" type="line"/>
			<point x="202" y="45"/>
			<point x="201" y="148"/>
			<point x="201" y="210" type="curve" smooth="yes"/>
			<point x="201" y="360" type="line"/>
			<point x="201" y="362" type="line"/>
			<point x="189" y="478" type="line"/>
			<point x="174" y="488" type="line"/>
			<point x="34" y="427" type="line"/>
			<point x="34" y="392" type="line"/>
			<point x="113" y="383" type="line"/>
			<point x="115" y="343"/>
			<point x="116" y="313"/>
			<point x="116" y="258" type="curve" smooth="yes"/>
			<point x="116" y="210" type="line" smooth="yes"/>
			<point x="116" y="148"/>
			<point x="115" y="45"/>
		</contour>
		<contour>
			<point x="340" y="0" type="line"/>
			<point x="572" y="0" type="line"/>
			<point x="572" y="36" type="line"/>
			<point x="472" y="56" type="line"/>
			<point x="449" y="56" type="line"/>
			<point x="340" y="36" type="line"/>
		</contour>
		<contour>
			<point x="413" y="0" type="curve"/>
			<point x="503" y="0" type="line"/>
			<point x="501" y="45"/>
			<point x="500" y="146"/>
			<point x="500" y="210" type="curve" smooth="yes"/>
			<point x="500" y="303" type="line" smooth="yes"/>
			<point x="500" y="434"/>
			<point x="459" y="488"/>
			<point x="372" y="488" type="curve" smooth="yes"/>
			<point x="304" y="488"/>
			<point x="231" y="442"/>
			<point x="184" y="381" type="curve"/>
			<point x="175" y="381" type="line"/>
			<point x="191" y="347" type="line"/>
			<point x="245" y="395"/>
			<point x="285" y="416"/>
			<point x="334" y="416" type="curve" smooth="yes"/>
			<point x="393" y="416"/>
			<point x="416" y="386"/>
			<point x="416" y="295" type="curve" smooth="yes"/>
			<point x="416" y="210" type="line" smooth="yes"/>
			<point x="416" y="146"/>
			<point x="415" y="45"/>
		</contour>
	</outline>
</glyph>
<glyph name="nhookleft" format="2">
	<unicode hex="0272"/>
	<advance width="606"/>
	<outline>
		<contour>
			<point x="15" y="-250" type="curve" smooth="yes"/>
			<point x="74" y="-250"/>
			<point x="104" y="-230"/>
			<point x="139" y="-195" type="curve" smooth="yes"/>
			<point x="193" y="-141"/>
			<point x="201" y="-63"/>
			<point x="201" y="100" type="curve"/>
			<point x="201" y="361" type="line"/>
			<point x="201" y="362" type="line"/>
			<point x="189" y="478" type="line"/>
			<point x="174" y="488" type="line"/>
			<point x="34" y="427" type="line"/>
			<point x="34" y="392" type="line"/>
			<point x="113" y="383" type="line"/>
			<point x="115" y="343"/>
			<point x="116" y="313"/>
			<point x="116" y="258" type="curve" smooth="yes"/>
			<point x="116" y="102" type="line" smooth="yes"/>
			<point x="116" y="-48"/>
			<point x="112" y="-129"/>
			<point x="96" y="-171" type="curve" smooth="yes"/>
			<point x="87" y="-194"/>
			<point x="76" y="-205"/>
			<point x="62" y="-211" type="curve"/>
			<point x="62" y="-220" type="line"/>
			<point x="105" y="-220" type="line"/>
			<point x="105" y="-215" type="line"/>
			<point x="60" y="-181" type="line" smooth="yes"/>
			<point x="34" y="-161"/>
			<point x="12" y="-151"/>
			<point x="-15" y="-151" type="curve" smooth="yes"/>
			<point x="-44" y="-151"/>
			<point x="-65" y="-164"/>
			<point x="-74" y="-192" type="curve"/>
			<point x="-73" y="-218"/>
			<point x="-45" y="-250"/>
		</contour>
		<contour>
			<point x="344" y="0" type="line"/>
			<point x="576" y="0" type="line"/>
			<point x="576" y="36" type="line"/>
			<point x="476" y="56" type="line"/>
			<point x="453" y="56" type="line"/>
			<point x="344" y="36" type="line"/>
		</contour>
		<contour>
			<point x="417" y="0" type="curve"/>
			<point x="507" y="0" type="line"/>
			<point x="505" y="45"/>
			<point x="504" y="146"/>
			<point x="504" y="210" type="curve" smooth="yes"/>
			<point x="504" y="303" type="line" smooth="yes"/>
			<point x="504" y="434"/>
			<point x="462" y="488"/>
			<point x="376" y="488" type="curve" smooth="yes"/>
			<point x="309" y="488"/>
			<point x="235" y="445"/>
			<point x="186" y="385" type="curve"/>
			<point x="178" y="385" type="line"/>
			<point x="191" y="347" type="line"/>
			<point x="247" y="396"/>
			<point x="288" y="416"/>
			<point x="337" y="416" type="curve" smooth="yes"/>
			<point x="396" y="416"/>
			<point x="420" y="387"/>
			<point x="420" y="295" type="curve" smooth="yes"/>
			<point x="420" y="210" type="line" smooth="yes"/>
			<point x="420" y="146"/>
			<point x="419" y="45"/>
		</contour>
	</outline>
</glyph>
<glyph name="rtail" format="2">
	<unicode hex="027D"/>
	<advance width="423"/>
	<outline>
		<contour>
			<point x="45" y="-175" type="curve" smooth="yes"/>
			<point x="84" y="-175"/>
			<point x="116" y="-158"/>
			<point x="137" y="-137" type="curve" smooth="yes"/>
			<point x="190" y="-84"/>
			<point x="201" y="-24"/>
			<point x="201" y="41" type="curve" smooth="yes"/>
			<point x="201" y="351" type="line"/>
			<point x="201" y="353" type="line"/>
			<point x="189" y="478" type="line"/>
			<point x="174" y="488" type="line"/>
			<point x="34" y="427" type="line"/>
			<point x="34" y="392" type="line"/>
			<point x="113" y="383" type="line"/>
			<point x="115" y="343"/>
			<point x="116" y="313"/>
			<point x="116" y="258" type="curve" smooth="yes"/>
			<point x="116" y="-44" type="line" smooth="yes"/>
			<point x="116" y="-100"/>
			<point x="99" y="-125"/>
			<point x="63" y="-125" type="curve" smooth="yes"/>
			<point x="28" y="-125"/>
			<point x="-2" y="-99"/>
			<point x="-2" y="-54" type="curve" smooth="yes"/>
			<point x="-2" y="-17"/>
			<point x="20" y="0"/>
			<point x="70" y="0" type="curve" smooth="yes"/>
			<point x="371" y="0" type="line"/>
			<point x="371" y="50" type="line"/>
			<point x="70" y="50" type="line" smooth="yes"/>
			<point x="-2" y="50"/>
			<point x="-58" y="-2"/>
			<point x="-58" y="-71" type="curve" smooth="yes"/>
			<point x="-58" y="-130"/>
			<point x="-19" y="-175"/>
		</contour>
		<contour>
			<point x="199" y="278" type="line"/>
			<point x="221" y="354"/>
			<point x="257" y="404"/>
			<point x="318" y="436" type="curve"/>
			<point x="269" y="427" type="line"/>
			<point x="296" y="403" type="line" smooth="yes"/>
			<point x="315" y="387"/>
			<point x="334" y="378"/>
			<point x="357" y="378" type="curve" smooth="yes"/>
			<point x="397" y="378"/>
			<point x="416" y="404"/>
			<point x="416" y="451" type="curve"/>
			<point x="404" y="473"/>
			<point x="374" y="488"/>
			<point x="344" y="488" type="curve" smooth="yes"/>
			<point x="287" y="488"/>
			<point x="227" y="435"/>
			<point x="195" y="346" type="curve"/>
			<point x="184" y="346" type="line"/>
		</contour>
	</outline>
</glyph>
<glyph name="Rsmall" format="2">
	<unicode hex="0280"/>
	<advance width="574"/>
	<outline>
		<contour>
			<point x="53" y="0" type="line"/>
			<point x="297" y="0" type="line"/>
			<point x="297" y="36" type="line"/>
			<point x="185" y="56" type="line"/>
			<point x="166" y="56" type="line"/>
			<point x="53" y="36" type="line"/>
		</contour>
		<contour>
			<point x="129" y="0" type="curve"/>
			<point x="222" y="0" type="line"/>
			<point x="219" y="74"/>
			<point x="219" y="148"/>
			<point x="219" y="228" type="curve" smooth="yes"/>
			<point x="219" y="254" type="line" smooth="yes"/>
			<point x="219" y="332"/>
			<point x="219" y="401"/>
			<point x="222" y="475" type="curve"/>
			<point x="129" y="475" type="line"/>
			<point x="131" y="401"/>
			<point x="131" y="327"/>
			<point x="131" y="254" type="curve" smooth="yes"/>
			<point x="131" y="221" type="line" smooth="yes"/>
			<point x="131" y="146"/>
			<point x="131" y="72"/>
		</contour>
		<contour>
			<point x="166" y="420" type="line"/>
			<point x="176" y="420" type="line"/>
			<point x="176" y="475" type="line"/>
			<point x="53" y="475" type="line"/>
			<point x="53" y="440" type="line"/>
		</contour>
		<contour>
			<point x="493" y="-9" type="curve" smooth="yes"/>
			<point x="519" y="-9"/>
			<point x="539" y="-5"/>
			<point x="557" y="0" type="curve"/>
			<point x="557" y="36" type="line"/>
			<point x="469" y="46" type="line"/>
			<point x="500" y="28" type="line"/>
			<point x="463" y="135" type="line" smooth="yes"/>
			<point x="440" y="206"/>
			<point x="400" y="231"/>
			<point x="335" y="235" type="curve"/>
			<point x="331" y="229" type="line"/>
			<point x="454" y="238"/>
			<point x="502" y="295"/>
			<point x="502" y="350" type="curve" smooth="yes"/>
			<point x="502" y="423"/>
			<point x="445" y="475"/>
			<point x="312" y="475" type="curve" smooth="yes"/>
			<point x="176" y="475" type="line"/>
			<point x="176" y="435" type="line"/>
			<point x="310" y="435" type="line" smooth="yes"/>
			<point x="381" y="435"/>
			<point x="409" y="406"/>
			<point x="409" y="350" type="curve" smooth="yes"/>
			<point x="409" y="296"/>
			<point x="375" y="258"/>
			<point x="298" y="258" type="curve" smooth="yes"/>
			<point x="176" y="258" type="line"/>
			<point x="176" y="220" type="line"/>
			<point x="274" y="220" type="line" smooth="yes"/>
			<point x="330" y="220"/>
			<point x="354" y="212"/>
			<point x="370" y="153" type="curve" smooth="yes"/>
			<point x="401" y="42" type="line" smooth="yes"/>
			<point x="412" y="3"/>
			<point x="438" y="-9"/>
		</contour>
	</outline>
</glyph>
<glyph name="esh" format="2">
	<unicode hex="0283"/>
	<advance width="344"/>
	<outline>
		<contour>
			<point x="-21" y="-250" type="curve" smooth="yes"/>
			<point x="25" y="-250"/>
			<point x="74" y="-235"/>
			<point x="110" y="-198" type="curve" smooth="yes"/>
			<point x="167" y="-142"/>
			<point x="191" y="-66"/>
			<point x="191" y="80" type="curve" smooth="yes"/>
			<point x="191" y="432" type="line" smooth="yes"/>
			<point x="191" y="595"/>
			<point x="200" y="651"/>
			<point x="242" y="693" type="curve" smooth="yes"/>
			<point x="256" y="707"/>
			<point x="267" y="714"/>
			<point x="289" y="720" type="curve"/>
			<point x="289" y="726" type="line"/>
			<point x="235" y="726" type="line"/>
			<point x="235" y="719" type="line"/>
			<point x="283" y="681" type="line" smooth="yes"/>
			<point x="309" y="659"/>
			<point x="330" y="650"/>
			<point x="355" y="650" type="curve" smooth="yes"/>
			<point x="391" y="650"/>
			<point x="414" y="670"/>
			<point x="415" y="696" type="curve"/>
			<point x="405" y="733"/>
			<point x="367" y="750"/>
			<point x="319" y="750" type="curve" smooth="yes"/>
			<point x="273" y="750"/>
			<point x="224" y="735"/>
			<point x="188" y="698" type="curve" smooth="yes"/>
			<point x="131" y="642"/>
			<point x="107" y="566"/>
			<point x="107" y="420" type="curve" smooth="yes"/>
			<point x="107" y="68" type="line" smooth="yes"/>
			<point x="107" y="-95"/>
			<point x="98" y="-151"/>
			<point x="56" y="-193" type="curve" smooth="yes"/>
			<point x="42" y="-207"/>
			<point x="31" y="-214"/>
			<point x="9" y="-220" type="curve"/>
			<point x="9" y="-226" type="line"/>
			<point x="63" y="-226" type="line"/>
			<point x="63" y="-219" type="line"/>
			<point x="15" y="-181" type="line" smooth="yes"/>
			<point x="-11" y="-159"/>
			<point x="-32" y="-150"/>
			<point x="-57" y="-150" type="curve" smooth="yes"/>
			<point x="-93" y="-150"/>
			<point x="-116" y="-170"/>
			<point x="-117" y="-196" type="curve"/>
			<point x="-107" y="-233"/>
			<point x="-69" y="-250"/>
		</contour>
	</outline>
</glyph>
<glyph name="ezh" format="2">
	<unicode hex="0292"/>
	<advance width="456"/>
	<outline>
		<contour>
			<point x="180" y="-250" type="curve" smooth="yes"/>
			<point x="315" y="-250"/>
			<point x="404" y="-158"/>
			<point x="404" y="-34" type="curve" smooth="yes"/>
			<point x="404" y="60"/>
			<point x="352" y="131"/>
			<point x="212" y="162" type="curve"/>
			<point x="213" y="141" type="line"/>
			<point x="416" y="439" type="line"/>
			<point x="416" y="475" type="line"/>
			<point x="43" y="475" type="line"/>
			<point x="35" y="325" type="line"/>
			<point x="87" y="321" type="line"/>
			<point x="121" y="461" type="line"/>
			<point x="84" y="432" type="line"/>
			<point x="214" y="432" type="line"/>
			<point x="324" y="432" type="line"/>
			<point x="333" y="422" type="line"/>
			<point x="333" y="456" type="line"/>
			<point x="126" y="149" type="line"/>
			<point x="133" y="131" type="line"/>
			<point x="272" y="112"/>
			<point x="315" y="61"/>
			<point x="315" y="-46" type="curve" smooth="yes"/>
			<point x="315" y="-145"/>
			<point x="266" y="-205"/>
			<point x="167" y="-205" type="curve" smooth="yes"/>
			<point x="144" y="-205"/>
			<point x="113" y="-202"/>
			<point x="78" y="-188" type="curve"/>
			<point x="128" y="-224" type="line"/>
			<point x="100" y="-98"/>
			<point x="83" y="-75"/>
			<point x="46" y="-75" type="curve" smooth="yes"/>
			<point x="23" y="-75"/>
			<point x="10" y="-85"/>
			<point x="-2" y="-108" type="curve"/>
			<point x="16" y="-208"/>
			<point x="87" y="-250"/>
		</contour>
	</outline>
</glyph>
<glyph name="glottalstop" format="2">
	<unicode hex="0294"/>
	<advance width="389"/>
	<outline>
		<contour>
			<point x="132" y="0" type="curve"/>
			<point x="222" y="0" type="line"/>
			<point x="220" y="70"/>
			<point x="219" y="140"/>
			<point x="219" y="210" type="curve" smooth="yes"/>
			<point x="219" y="368" type="line"/>
			<point x="172" y="309" type="line"/>
			<point x="328" y="412"/>
			<point x="370" y="492"/>
			<point x="370" y="574" type="curve" smooth="yes"/>
			<point x="370" y="680"/>
			<point x="314" y="750"/>
			<point x="185" y="750" type="curve" smooth="yes"/>
			<point x="84" y="750"/>
			<point x="-6" y="701"/>
			<point x="-17" y="595" type="curve"/>
			<point x="-8" y="573"/>
			<point x="12" y="562"/>
			<point x="34" y="562" type="curve" smooth="yes"/>
			<point x="66" y="562"/>
			<point x="89" y="580"/>
			<point x="111" y="720" type="curve"/>
			<point x="59" y="683" type="line"/>
			<point x="96" y="700"/>
			<point x="136" y="705"/>
			<point x="160" y="705" type="curve" smooth="yes"/>
			<point x="233" y="705"/>
			<point x="280" y="653"/>
			<point x="280" y="560" type="curve" smooth="yes"/>
			<point x="280" y="458"/>
			<point x="239" y="402"/>
			<point x="135" y="335" type="curve"/>
			<point x="135" y="210" type="line" smooth="yes"/>
			<point x="135" y="140"/>
			<point x="134" y="70"/>
		</contour>
	</outline>
</glyph>
<glyph name="glottalstopreversed" format="2">
	<unicode hex="0295"/>
	<advance width="391"/>
	<outline>
		<contour>
			<point x="169" y="0" type="curve"/>
			<point x="259" y="0" type="line"/>
			<point x="257" y="70"/>
			<point x="256" y="140"/>
			<point x="256" y="210" type="curve" smooth="yes"/>
			<point x="256" y="345" type="line"/>
			<point x="150" y="399"/>
			<point x="111" y="444"/>
			<point x="111" y="548" type="curve" smooth="yes"/>
			<point x="111" y="648"/>
			<point x="171" y="704"/>
			<point x="235" y="704" type="curve" smooth="yes"/>
			<point x="262" y="704"/>
			<point x="293" y="696"/>
			<point x="326" y="679" type="curve"/>
			<point x="282" y="722" type="line"/>
			<point x="301" y="606"/>
			<point x="318" y="582"/>
			<point x="357" y="582" type="curve" smooth="yes"/>
			<point x="382" y="582"/>
			<point x="398" y="594"/>
			<point x="403" y="620" type="curve"/>
			<point x="390" y="698"/>
			<point x="325" y="750"/>
			<point x="234" y="750" type="curve" smooth="yes"/>
			<point x="119" y="750"/>
			<point x="21" y="670"/>
			<point x="21" y="535" type="curve" smooth="yes"/>
			<point x="21" y="427"/>
			<point x="83" y="351"/>
			<point x="219" y="309" type="curve"/>
			<point x="172" y="368" type="line"/>
			<point x="172" y="210" type="line" smooth="yes"/>
			<point x="172" y="140"/>
			<point x="171" y="70"/>
		</contour>
	</outline>
</glyph>
<glyph name="cstretched" format="2">
	<unicode hex="0297"/>
	<advance width="488"/>
	<outline>
		<contour>
			<point x="280" y="-250" type="curve" smooth="yes"/>
			<point x="365" y="-250"/>
			<point x="418" y="-209"/>
			<point x="457" y="-137" type="curve"/>
			<point x="435" y="-119" type="line"/>
			<point x="390" y="-171"/>
			<point x="345" y="-185"/>
			<point x="295" y="-185" type="curve" smooth="yes"/>
			<point x="199" y="-185"/>
			<point x="133" y="-109"/>
			<point x="133" y="116" type="curve" smooth="yes"/>
			<point x="133" y="392"/>
			<point x="199" y="442"/>
			<point x="288" y="442" type="curve" smooth="yes"/>
			<point x="314" y="442"/>
			<point x="344" y="434"/>
			<point x="376" y="417" type="curve"/>
			<point x="337" y="455" type="line"/>
			<point x="348" y="338"/>
			<point x="371" y="320"/>
			<point x="407" y="320" type="curve" smooth="yes"/>
			<point x="432" y="320"/>
			<point x="448" y="332"/>
			<point x="453" y="358" type="curve"/>
			<point x="440" y="432"/>
			<point x="370" y="488"/>
			<point x="284" y="488" type="curve" smooth="yes"/>
			<point x="163" y="488"/>
			<point x="45" y="415"/>
			<point x="45" y="117" type="curve" smooth="yes"/>
			<point x="45" y="-153"/>
			<point x="135" y="-250"/>
		</contour>
	</outline>
</glyph>
<glyph name="dmiddletilde" format="2">
	<unicode hex="1D6D"/>
	<advance width="567"/>
	<outline>
		<contour>
			<point x="409" y="594" type="line"/>
			<point x="387" y="614"/>
			<point x="374" y="627"/>
			<point x="341" y="627" type="curve" smooth="yes"/>
			<point x="286" y="627"/>
			<point x="257" y="581"/>
			<point x="246" y="511" type="curve"/>
			<point x="273" y="503" type="line"/>
			<point x="287" y="547"/>
			<point x="305" y="574"/>
			<point x="335" y="574" type="curve" smooth="yes"/>
			<point x="362" y="574"/>
			<point x="385" y="550"/>
			<point x="410" y="528" type="curve"/>
		</contour>
		<contour>
			<point x="430" y="541" type="line"/>
			<point x="452" y="522"/>
			<point x="464" y="509"/>
			<point x="497" y="509" type="curve" smooth="yes"/>
			<point x="553" y="509"/>
			<point x="580" y="555"/>
			<point x="592" y="624" type="curve"/>
			<point x="565" y="633" type="line"/>
			<point x="551" y="589"/>
			<point x="533" y="561"/>
			<point x="503" y="561" type="curve" smooth="yes"/>
			<point x="476" y="561"/>
			<point x="455" y="585"/>
			<point x="428" y="607" type="curve"/>
		</contour>
		<component base="d"/>
	</outline>
</glyph>
<glyph name="smiddletilde" format="2">
	<unicode hex="1D74"/>
	<advance width="434"/>
	<outline>
		<contour>
			<point x="226" y="243" type="line"/>
			<point x="256" y="225"/>
			<point x="271" y="212"/>
			<point x="313" y="212" type="curve" smooth="yes"/>
			<point x="369" y="212"/>
			<point x="396" y="258"/>
			<point x="408" y="327" type="curve"/>
			<point x="381" y="336" type="line"/>
			<point x="367" y="282"/>
			<point x="351" y="264"/>
			<point x="309" y="264" type="curve" smooth="yes"/>
			<point x="283" y="264"/>
			<point x="255" y="277"/>
			<point x="229" y="287" type="curve"/>
		</contour>
		<contour>
			<point x="206" y="242" type="line"/>
			<point x="176" y="260"/>
			<point x="161" y="273"/>
			<point x="119" y="273" type="curve" smooth="yes"/>
			<point x="63" y="273"/>
			<point x="36" y="227"/>
			<point x="24" y="158" type="curve"/>
			<point x="51" y="149" type="line"/>
			<point x="65" y="203"/>
			<point x="81" y="221"/>
			<point x="123" y="221" type="curve" smooth="yes"/>
			<point x="149" y="221"/>
			<point x="177" y="208"/>
			<point x="203" y="198" type="curve"/>
		</contour>
		<component base="s"/>
	</outline>
</glyph>
<glyph name="tmiddletilde" format="2">
	<unicode hex="1D75"/>
	<advance width="325"/>
	<outline>
		<contour>
			<point x="143" y="294" type="line"/>
			<point x="121" y="314"/>
			<point x="108" y="327"/>
			<point x="75" y="327" type="curve" smooth="yes"/>
			<point x="20" y="327"/>
			<point x="-9" y="281"/>
			<point x="-20" y="211" type="curve"/>
			<point x="7" y="203" type="line"/>
			<point x="21" y="247"/>
			<point x="39" y="274"/>
			<point x="69" y="274" type="curve" smooth="yes"/>
			<point x="96" y="274"/>
			<point x="119" y="250"/>
			<point x="144" y="228" type="curve"/>
		</contour>
		<contour>
			<point x="144" y="235" type="line"/>
			<point x="166" y="216"/>
			<point x="178" y="203"/>
			<point x="211" y="203" type="curve" smooth="yes"/>
			<point x="267" y="203"/>
			<point x="294" y="249"/>
			<point x="306" y="318" type="curve"/>
			<point x="279" y="327" type="line"/>
			<point x="265" y="283"/>
			<point x="247" y="255"/>
			<point x="217" y="255" type="curve" smooth="yes"/>
			<point x="190" y="255"/>
			<point x="169" y="279"/>
			<point x="142" y="301" type="curve"/>
		</contour>
		<component base="t"/>
	</outline>
</glyph>
<glyph name="zmiddletilde" format="2">
	<unicode hex="1D76"/>
	<advance width="456"/>
	<outline>
		<contour>
			<point x="73" y="180" type="line"/>
			<point x="87" y="229"/>
			<point x="105" y="259"/>
			<point x="135" y="259" type="curve" smooth="yes"/>
			<point x="162" y="259"/>
			<point x="196" y="230"/>
			<point x="222" y="213" type="curve"/>
			<point x="225" y="280" type="line"/>
			<point x="202" y="294"/>
			<point x="174" y="318"/>
			<point x="141" y="318" type="curve" smooth="yes"/>
			<point x="86" y="318"/>
			<point x="57" y="267"/>
			<point x="46" y="189" type="curve"/>
		</contour>
		<contour>
			<point x="316" y="178" type="curve" smooth="yes"/>
			<point x="372" y="178"/>
			<point x="399" y="229"/>
			<point x="411" y="306" type="curve"/>
			<point x="384" y="316" type="line"/>
			<point x="370" y="267"/>
			<point x="352" y="236"/>
			<point x="322" y="236" type="curve" smooth="yes"/>
			<point x="295" y="236"/>
			<point x="273" y="255"/>
			<point x="245" y="272" type="curve"/>
			<point x="237" y="209" type="line"/>
			<point x="261" y="195"/>
			<point x="283" y="178"/>
		</contour>
		<component base="z"/>
	</outline>
</glyph>
<glyph name="circledotted" format="2">
	<unicode hex="25CC"/>
	<advance width="638"/>
	<outline>
		<contour>
			<point x="319" y="-15" type="curve" smooth="yes"/>
			<point x="336" y="-15"/>
			<point x="349" y="-2"/>
			<point x="349" y="15" type="curve" smooth="yes"/>
			<point x="349" y="32"/>
			<point x="336" y="45"/>
			<point x="319" y="45" type="curve" smooth="yes"/>
			<point x="302" y="45"/>
			<point x="289" y="32"/>
			<point x="289" y="15" type="curve" smooth="yes"/>
			<point x="289" y="-2"/>
			<point x="302" y="-15"/>
		</contour>
		<contour>
			<point x="418" y="5" type="curve" smooth="yes"/>
			<point x="435" y="5"/>
			<point x="448" y="18"/>
			<point x="448" y="35" type="curve" smooth="yes"/>
			<point x="448" y="51"/>
			<point x="435" y="65"/>
			<point x="418" y="65" type="curve" smooth="yes"/>
			<point x="402" y="65"/>
			<point x="388" y="51"/>
			<point x="388" y="35" type="curve" smooth="yes"/>
			<point x="388" y="18"/>
			<point x="402" y="5"/>
		</contour>
		<contour>
			<point x="502" y="61" type="curve" smooth="yes"/>
			<point x="519" y="61"/>
			<point x="532" y="74"/>
			<point x="532" y="91" type="curve" smooth="yes"/>
			<point x="532" y="107"/>
			<point x="519" y="121"/>
			<point x="502" y="121" type="curve" smooth="yes"/>
			<point x="486" y="121"/>
			<point x="472" y="107"/>
			<point x="472" y="91" type="curve" smooth="yes"/>
			<point x="472" y="74"/>
			<point x="486" y="61"/>
		</contour>
		<contour>
			<point x="558" y="145" type="curve" smooth="yes"/>
			<point x="575" y="145"/>
			<point x="588" y="158"/>
			<point x="588" y="175" type="curve" smooth="yes"/>
			<point x="588" y="191"/>
			<point x="575" y="205"/>
			<point x="558" y="205" type="curve" smooth="yes"/>
			<point x="542" y="205"/>
			<point x="528" y="191"/>
			<point x="528" y="175" type="curve" smooth="yes"/>
			<point x="528" y="158"/>
			<point x="542" y="145"/>
		</contour>
		<contour>
			<point x="578" y="244" type="curve" smooth="yes"/>
			<point x="595" y="244"/>
			<point x="608" y="257"/>
			<point x="608" y="274" type="curve" smooth="yes"/>
			<point x="608" y="291"/>
			<point x="595" y="304"/>
			<point x="578" y="304" type="curve" smooth="yes"/>
			<point x="561" y="304"/>
			<point x="548" y="291"/>
			<point x="548" y="274" type="curve" smooth="yes"/>
			<point x="548" y="257"/>
			<point x="561" y="244"/>
		</contour>
		<contour>
			<point x="558" y="343" type="curve" smooth="yes"/>
			<point x="575" y="343"/>
			<point x="588" y="357"/>
			<point x="588" y="373" type="curve" smooth="yes"/>
			<point x="588" y="390"/>
			<point x="575" y="403"/>
			<point x="558" y="403" type="curve" smooth="yes"/>
			<point x="542" y="403"/>
			<point x="528" y="390"/>
			<point x="528" y="373" type="curve" smooth="yes"/>
			<point x="528" y="357"/>
			<point x="542" y="343"/>
		</contour>
		<contour>
			<point x="502" y="427" type="curve" smooth="yes"/>
			<point x="519" y="427"/>
			<point x="532" y="441"/>
			<point x="532" y="457" type="curve" smooth="yes"/>
			<point x="532" y="474"/>
			<point x="519" y="487"/>
			<point x="502" y="487" type="curve" smooth="yes"/>
			<point x="486" y="487"/>
			<point x="472" y="474"/>
			<point x="472" y="457" type="curve" smooth="yes"/>
			<point x="472" y="441"/>
			<point x="486" y="427"/>
		</contour>
		<contour>
			<point x="418" y="483" type="curve" smooth="yes"/>
			<point x="435" y="483"/>
			<point x="448" y="497"/>
			<point x="448" y="513" type="curve" smooth="yes"/>
			<point x="448" y="530"/>
			<point x="435" y="543"/>
			<point x="418" y="543" type="curve" smooth="yes"/>
			<point x="402" y="543"/>
			<point x="388" y="530"/>
			<point x="388" y="513" type="curve" smooth="yes"/>
			<point x="388" y="497"/>
			<point x="402" y="483"/>
		</contour>
		<contour>
			<point x="319" y="503" type="curve" smooth="yes"/>
			<point x="336" y="503"/>
			<point x="349" y="516"/>
			<point x="349" y="533" type="curve" smooth="yes"/>
			<point x="349" y="550"/>
			<point x="336" y="563"/>
			<point x="319" y="563" type="curve" smooth="yes"/>
			<point x="302" y="563"/>
			<point x="289" y="550"/>
			<point x="289" y="533" type="curve" smooth="yes"/>
			<point x="289" y="516"/>
			<point x="302" y="503"/>
		</contour>
		<contour>
			<point x="220" y="483" type="curve" smooth="yes"/>
			<point x="236" y="483"/>
			<point x="250" y="497"/>
			<point x="250" y="513" type="curve" smooth="yes"/>
			<point x="250" y="530"/>
			<point x="236" y="543"/>
			<point x="220" y="543" type="curve" smooth="yes"/>
			<point x="203" y="543"/>
			<point x="190" y="530"/>
			<point x="190" y="513" type="curve" smooth="yes"/>
			<point x="190" y="497"/>
			<point x="203" y="483"/>
		</contour>
		<contour>
			<point x="136" y="427" type="curve" smooth="yes"/>
			<point x="152" y="427"/>
			<point x="166" y="441"/>
			<point x="166" y="457" type="curve" smooth="yes"/>
			<point x="166" y="474"/>
			<point x="152" y="487"/>
			<point x="136" y="487" type="curve" smooth="yes"/>
			<point x="119" y="487"/>
			<point x="106" y="474"/>
			<point x="106" y="457" type="curve" smooth="yes"/>
			<point x="106" y="441"/>
			<point x="119" y="427"/>
		</contour>
		<contour>
			<point x="80" y="343" type="curve" smooth="yes"/>
			<point x="96" y="343"/>
			<point x="110" y="357"/>
			<point x="110" y="373" type="curve" smooth="yes"/>
			<point x="110" y="390"/>
			<point x="96" y="403"/>
			<point x="80" y="403" type="curve" smooth="yes"/>
			<point x="63" y="403"/>
			<point x="50" y="390"/>
			<point x="50" y="373" type="curve" smooth="yes"/>
			<point x="50" y="357"/>
			<point x="63" y="343"/>
		</contour>
		<contour>
			<point x="60" y="244" type="curve" smooth="yes"/>
			<point x="77" y="244"/>
			<point x="90" y="257"/>
			<point x="90" y="274" type="curve" smooth="yes"/>
			<point x="90" y="291"/>
			<point x="77" y="304"/>
			<point x="60" y="304" type="curve" smooth="yes"/>
			<point x="43" y="304"/>
			<point x="30" y="291"/>
			<point x="30" y="274" type="curve" smooth="yes"/>
			<point x="30" y="257"/>
			<point x="43" y="244"/>
		</contour>
		<contour>
			<point x="80" y="145" type="curve" smooth="yes"/>
			<point x="96" y="145"/>
			<point x="110" y="158"/>
			<point x="110" y="175" type="curve" smooth="yes"/>
			<point x="110" y="191"/>
			<point x="96" y="205"/>
			<point x="80" y="205" type="curve" smooth="yes"/>
			<point x="63" y="205"/>
			<point x="50" y="191"/>
			<point x="50" y="175" type="curve" smooth="yes"/>
			<point x="50" y="158"/>
			<point x="63" y="145"/>
		</contour>
		<contour>
			<point x="136" y="61" type="curve" smooth="yes"/>
			<point x="152" y="61"/>
			<point x="166" y="74"/>
			<point x="166" y="91" type="curve" smooth="yes"/>
			<point x="166" y="107"/>
			<point x="152" y="121"/>
			<point x="136" y="121" type="curve" smooth="yes"/>
			<point x="119" y="121"/>
			<point x="106" y="107"/>
			<point x="106" y="91" type="curve" smooth="yes"/>
			<point x="106" y="74"/>
			<point x="119" y="61"/>
		</contour>
		<contour>
			<point x="220" y="5" type="curve" smooth="yes"/>
			<point x="236" y="5"/>
			<point x="250" y="18"/>
			<point x="250" y="35" type="curve" smooth="yes"/>
			<point x="250" y="51"/>
			<point x="236" y="65"/>
			<point x="220" y="65" type="curve" smooth="yes"/>
			<point x="203" y="65"/>
			<point x="190" y="51"/>
			<point x="190" y="35" type="curve" smooth="yes"/>
			<point x="190" y="18"/>
			<point x="203" y="5"/>
		</contour>
	</outline>
	<anchor name="aboveLC" x="319" y="549"/>
	<anchor name="belowLC" x="319" y="-20"/>
	<anchor name="hornLC" x="532" y="457"/>
	<anchor name="ogonek" x="448" y="0"/>
	<anchor name="baseLC" x="319" y="0"/>
</glyph>
